# xmcd
#
# Track frame offsets: 
#        150
#        21525
#        48601
#        71513
#        93638
#        113027
#        137776
#        155814
#        171189
#        188965
#        203665
#        226991
#        242667
#        264529
#        280015
#        307839
#
# Disc length: 4343 seconds
#
# Revision: 0
# Processed by: cddbd v1.4PL0 Copyright (c) Steve Scherf et al.
# Submitted via: ExactAudioCopy v0.90b4
#
DISCID=e510f510
DTITLE=Various Artist - My Favourites Blues - vol 2
DYEAR=2001
DGENRE=Blues
TTITLE0=Mason Casey - Smellin' Like Whiskey
TTITLE1=John Campbell - Guilt Trip
TTITLE2=Craig Erickson /Everybody's Business
TTITLE3=Sy Klopps Blues Band - Good Morning Little School
TTITLE4=Sunset Heights - Dangerous Moves
TTITLE5=Innes Sibun - Come Back Crazy
TTITLE6=Bobby Mack - Palace Of The King
TTITLE7=Nathan Cavaleri Band - Summertime Blues
TTITLE8=Wild't' and Spirit - Freedom Train
TTITLE9=Gary Moore - You Upset Me Baby
TTITLE10=Oriental Spas - Big Book
TTITLE11=Shwn Pittman - She's Evil
TTITLE12=Bobby Messano and NBO - Sea Of Hope
TTITLE13=Jonny Lang - Hit The Ground Running
TTITLE14=Greg Kihn - Secret Meetines
TTITLE15=Rob Tognoni - The Hearder Will Fall
EXTD=
EXTT0=
EXTT1=
EXTT2=
EXTT3=
EXTT4=
EXTT5=
EXTT6=
EXTT7=
EXTT8=
EXTT9=
EXTT10=
EXTT11=
EXTT12=
EXTT13=
EXTT14=
EXTT15=
PLAYORDER=
